<svg width="21" height="19" viewBox="0 0 21 19" fill="none" xmlns="http://www.w3.org/2000/svg">
<path d="M18.8064 1.95849L18.8081 1.96024C20.7495 3.88233 20.7521 7.03905 18.8064 8.98466L10.3668 17.4238L1.95214 9.00951C1.95156 9.00892 1.95097 9.00833 1.95039 9.00773C1.02466 8.06185 0.505859 6.81051 0.505859 5.48217C0.505859 4.14855 1.00708 2.89987 1.94851 1.95849L1.94852 1.95849L1.95027 1.95672C3.87215 0.0157068 7.02772 0.0131363 8.97334 1.97793L8.97508 1.97967L10.0133 3.01784L10.3704 3.37496L10.7239 3.01425L11.7603 1.95678C13.7052 0.0138381 16.8622 0.0144082 18.8064 1.95849ZM10.0133 16.514L10.3673 16.868L10.7209 16.5136L18.5154 8.69817C19.3961 7.83998 19.8718 6.69411 19.8718 5.46098C19.8718 4.22132 19.3704 3.07929 18.5188 2.22716C16.7537 0.439572 13.83 0.443401 12.0474 2.22597L10.365 3.90825L8.68633 2.24716C8.68604 2.24687 8.68576 2.24659 8.68547 2.2463C7.78519 1.34652 6.61954 0.893053 5.4512 0.893053C4.28354 0.893053 3.11856 1.34599 2.2185 2.24474C1.3377 3.10296 0.861898 4.24893 0.861898 5.48217C0.861898 6.70362 1.36539 7.84297 2.21126 8.7123L2.21123 8.71234L2.21607 8.71718L10.0133 16.514Z" fill="black" stroke="black"/>
</svg>
